<!-- Generator: Avocode 2.1.0 - http://avocode.com -->
<svg height="60" width="34" xmlns:xlink="http://www.w3.org/1999/xlink" xmlns="http://www.w3.org/2000/svg" viewBox="0 0 34 60">
    <path stroke-linejoin="miter" stroke-linecap="butt" stroke-width="2" stroke="#333333" fill="none" fill-rule="evenodd" d="M 16 0 C 20.42 0 24 4.03 24 9 C 24 13.97 20.42 18 16 18 C 11.58 18 8 13.97 8 9 C 8 4.03 11.58 0 16 0 Z" />
    <path stroke-linejoin="miter" stroke-linecap="butt" stroke-width="2" stroke="#333333" fill="none" fill-rule="evenodd" d="M 11 19 C 11 19 20 19 20 19 C 23.87 19 27 22.13 27 26 C 27 26 27 49 27 49 C 27 49 4 49 4 49 C 4 49 4 26 4 26 C 4 22.13 7.13 19 11 19 Z" />
    <path stroke-linejoin="miter" stroke-linecap="butt" stroke-width="2" stroke="#333333" fill="#ab84d3" fill-rule="evenodd" d="M 19 37 C 19 37 34 37 34 37 C 34 37 34 46 34 46 C 34 46 19 46 19 46 C 19 46 19 37 19 37 Z" />
    <path stroke-linejoin="miter" stroke-linecap="butt" stroke-width="2" stroke="#333333" fill="none" fill-rule="evenodd" d="M 4 60 C 4 60 4 47 4 47 C 4 47 27 47 27 47 C 27 47 27 60 27 60" />
    <path stroke-linejoin="miter" stroke-linecap="butt" stroke-width="2" stroke="#333333" fill="none" fill-rule="evenodd" d="M 15 60 C 15 60 15 55 15 55" />
    <path stroke-linejoin="miter" stroke-linecap="butt" stroke-width="2" stroke="#333333" fill="none" fill-rule="evenodd" d="M 6 25 C 3.79 25 2 26.79 2 29 C 2 29 2 38 2 38 C 2 40.21 3.79 42 6 42 C 6 42 14 42 14 42" />
    <path stroke-linejoin="miter" stroke-linecap="butt" stroke-width="2" stroke="#333333" fill="none" fill-rule="evenodd" d="M 29 8 C 29 8 9 8 9 8" />
</svg>